<mxfile host="app.diagrams.net" modified="2024-03-14T15:07:06.217Z" agent="Mozilla/5.0 (Windows NT 10.0; Win64; x64; rv:123.0) Gecko/20100101 Firefox/123.0" etag="rUYdSEK65yfCweAkbrr_" version="24.0.6" type="device">
  <diagram name="Page-1" id="xXWCD4l-A-pOY69x9fGx">
    <mxGraphModel dx="1313" dy="674" grid="1" gridSize="10" guides="1" tooltips="1" connect="1" arrows="1" fold="1" page="1" pageScale="1" pageWidth="850" pageHeight="1100" math="0" shadow="0">
      <root>
        <mxCell id="0" />
        <mxCell id="1" parent="0" />
        <mxCell id="SpBt9WVTU8YwIuKVBQ5M-1" value="" style="verticalLabelPosition=bottom;verticalAlign=top;html=1;shadow=0;dashed=0;strokeWidth=1;shape=mxgraph.android.phone2;strokeColor=#c0c0c0;" vertex="1" parent="1">
          <mxGeometry x="30" y="40" width="200" height="430" as="geometry" />
        </mxCell>
        <mxCell id="SpBt9WVTU8YwIuKVBQ5M-2" value="" style="verticalLabelPosition=bottom;verticalAlign=top;html=1;shadow=0;dashed=0;strokeWidth=1;shape=mxgraph.android.phone2;strokeColor=#c0c0c0;" vertex="1" parent="1">
          <mxGeometry x="300" y="40" width="200" height="430" as="geometry" />
        </mxCell>
        <mxCell id="SpBt9WVTU8YwIuKVBQ5M-3" value="" style="verticalLabelPosition=bottom;verticalAlign=top;html=1;shadow=0;dashed=0;strokeWidth=1;shape=mxgraph.android.phone2;strokeColor=#c0c0c0;" vertex="1" parent="1">
          <mxGeometry x="540" y="40" width="200" height="430" as="geometry" />
        </mxCell>
        <mxCell id="SpBt9WVTU8YwIuKVBQ5M-4" value="" style="verticalLabelPosition=bottom;verticalAlign=top;html=1;shadow=0;dashed=0;strokeWidth=1;shape=mxgraph.android.phone2;strokeColor=#c0c0c0;" vertex="1" parent="1">
          <mxGeometry x="40" y="480" width="220" height="390" as="geometry" />
        </mxCell>
        <mxCell id="SpBt9WVTU8YwIuKVBQ5M-5" value="" style="shape=mxgraph.signs.transportation.car_1;html=1;pointerEvents=1;fillColor=#000000;strokeColor=none;verticalLabelPosition=bottom;verticalAlign=top;align=center;" vertex="1" parent="1">
          <mxGeometry x="97.5" y="90" width="65" height="68" as="geometry" />
        </mxCell>
        <mxCell id="SpBt9WVTU8YwIuKVBQ5M-6" value="XpertTransit" style="text;html=1;align=center;verticalAlign=middle;whiteSpace=wrap;rounded=0;" vertex="1" parent="1">
          <mxGeometry x="100.5" y="160" width="60" height="30" as="geometry" />
        </mxCell>
        <mxCell id="SpBt9WVTU8YwIuKVBQ5M-7" value="Email" style="text;html=1;align=center;verticalAlign=middle;whiteSpace=wrap;rounded=0;" vertex="1" parent="1">
          <mxGeometry x="42" y="195" width="60" height="30" as="geometry" />
        </mxCell>
        <mxCell id="SpBt9WVTU8YwIuKVBQ5M-51" value="" style="edgeStyle=orthogonalEdgeStyle;rounded=0;orthogonalLoop=1;jettySize=auto;html=1;" edge="1" parent="1" source="SpBt9WVTU8YwIuKVBQ5M-8" target="SpBt9WVTU8YwIuKVBQ5M-11">
          <mxGeometry relative="1" as="geometry" />
        </mxCell>
        <mxCell id="SpBt9WVTU8YwIuKVBQ5M-8" value="Password" style="text;html=1;align=center;verticalAlign=middle;whiteSpace=wrap;rounded=0;" vertex="1" parent="1">
          <mxGeometry x="50" y="258" width="60" height="30" as="geometry" />
        </mxCell>
        <mxCell id="SpBt9WVTU8YwIuKVBQ5M-9" value="" style="strokeWidth=1;shadow=0;dashed=0;align=center;html=1;shape=mxgraph.mockup.text.textBox;fontColor=#666666;align=left;fontSize=17;spacingLeft=4;spacingTop=-3;whiteSpace=wrap;strokeColor=#666666;mainText=" vertex="1" parent="1">
          <mxGeometry x="55.5" y="226" width="150" height="30" as="geometry" />
        </mxCell>
        <mxCell id="SpBt9WVTU8YwIuKVBQ5M-11" value="" style="strokeWidth=1;shadow=0;dashed=0;align=center;html=1;shape=mxgraph.mockup.text.textBox;fontColor=#666666;align=left;fontSize=17;spacingLeft=4;spacingTop=-3;whiteSpace=wrap;strokeColor=#666666;mainText=" vertex="1" parent="1">
          <mxGeometry x="55" y="290" width="150" height="30" as="geometry" />
        </mxCell>
        <mxCell id="SpBt9WVTU8YwIuKVBQ5M-12" value="Register" style="strokeWidth=1;shadow=0;dashed=0;align=center;html=1;shape=mxgraph.mockup.buttons.button;strokeColor=#666666;fontColor=#ffffff;mainText=;buttonStyle=round;fontSize=17;fontStyle=1;fillColor=#008cff;whiteSpace=wrap;" vertex="1" parent="1">
          <mxGeometry x="90" y="360" width="80" height="20" as="geometry" />
        </mxCell>
        <mxCell id="SpBt9WVTU8YwIuKVBQ5M-13" value="Login" style="strokeWidth=1;shadow=0;dashed=0;align=center;html=1;shape=mxgraph.mockup.buttons.button;strokeColor=#666666;fontColor=#ffffff;mainText=;buttonStyle=round;fontSize=17;fontStyle=1;fillColor=#008cff;whiteSpace=wrap;" vertex="1" parent="1">
          <mxGeometry x="90.5" y="330" width="80" height="20" as="geometry" />
        </mxCell>
        <mxCell id="SpBt9WVTU8YwIuKVBQ5M-14" value="Register" style="labelPosition=center;verticalLabelPosition=middle;align=center;html=1;shape=mxgraph.basic.shaded_button;dx=10;fillColor=#E6E6E6;strokeColor=none;whiteSpace=wrap;" vertex="1" parent="1">
          <mxGeometry x="350" y="90" width="100" height="40" as="geometry" />
        </mxCell>
        <mxCell id="SpBt9WVTU8YwIuKVBQ5M-15" value="Register" style="strokeWidth=1;shadow=0;dashed=0;align=center;html=1;shape=mxgraph.mockup.buttons.button;strokeColor=#666666;fontColor=#ffffff;mainText=;buttonStyle=round;fontSize=17;fontStyle=1;fillColor=#008cff;whiteSpace=wrap;" vertex="1" parent="1">
          <mxGeometry x="360" y="364" width="80" height="20" as="geometry" />
        </mxCell>
        <mxCell id="SpBt9WVTU8YwIuKVBQ5M-16" value="Full Name:" style="text;html=1;align=center;verticalAlign=middle;whiteSpace=wrap;rounded=0;" vertex="1" parent="1">
          <mxGeometry x="310" y="133" width="60" height="30" as="geometry" />
        </mxCell>
        <mxCell id="SpBt9WVTU8YwIuKVBQ5M-17" value="" style="strokeWidth=1;shadow=0;dashed=0;align=center;html=1;shape=mxgraph.mockup.text.textBox;fontColor=#666666;align=left;fontSize=17;spacingLeft=4;spacingTop=-3;whiteSpace=wrap;strokeColor=#666666;mainText=" vertex="1" parent="1">
          <mxGeometry x="310" y="161" width="130" height="26" as="geometry" />
        </mxCell>
        <mxCell id="SpBt9WVTU8YwIuKVBQ5M-18" value="Email" style="text;html=1;align=center;verticalAlign=middle;whiteSpace=wrap;rounded=0;" vertex="1" parent="1">
          <mxGeometry x="300" y="189" width="60" height="30" as="geometry" />
        </mxCell>
        <mxCell id="SpBt9WVTU8YwIuKVBQ5M-19" value="" style="strokeWidth=1;shadow=0;dashed=0;align=center;html=1;shape=mxgraph.mockup.text.textBox;fontColor=#666666;align=left;fontSize=17;spacingLeft=4;spacingTop=-3;whiteSpace=wrap;strokeColor=#666666;mainText=" vertex="1" parent="1">
          <mxGeometry x="310" y="216" width="130" height="27" as="geometry" />
        </mxCell>
        <mxCell id="SpBt9WVTU8YwIuKVBQ5M-25" style="edgeStyle=orthogonalEdgeStyle;rounded=0;orthogonalLoop=1;jettySize=auto;html=1;exitX=0.75;exitY=1;exitDx=0;exitDy=0;" edge="1" parent="1" source="SpBt9WVTU8YwIuKVBQ5M-21">
          <mxGeometry relative="1" as="geometry">
            <mxPoint x="360.0526315789473" y="297" as="targetPoint" />
          </mxGeometry>
        </mxCell>
        <mxCell id="SpBt9WVTU8YwIuKVBQ5M-21" value="Password" style="text;html=1;align=center;verticalAlign=middle;whiteSpace=wrap;rounded=0;" vertex="1" parent="1">
          <mxGeometry x="310" y="244" width="60" height="30" as="geometry" />
        </mxCell>
        <mxCell id="SpBt9WVTU8YwIuKVBQ5M-23" value="" style="strokeWidth=1;shadow=0;dashed=0;align=center;html=1;shape=mxgraph.mockup.text.textBox;fontColor=#666666;align=left;fontSize=17;spacingLeft=4;spacingTop=-3;whiteSpace=wrap;strokeColor=#666666;mainText=" vertex="1" parent="1">
          <mxGeometry x="310" y="272" width="130" height="27" as="geometry" />
        </mxCell>
        <mxCell id="SpBt9WVTU8YwIuKVBQ5M-26" value="Role" style="text;html=1;align=center;verticalAlign=middle;whiteSpace=wrap;rounded=0;" vertex="1" parent="1">
          <mxGeometry x="297" y="300" width="60" height="30" as="geometry" />
        </mxCell>
        <mxCell id="SpBt9WVTU8YwIuKVBQ5M-28" value="&lt;ol&gt;&lt;li&gt;Bus Driver&lt;/li&gt;&lt;li&gt;Student&lt;br&gt;&lt;/li&gt;&lt;/ol&gt;" style="text;strokeColor=none;fillColor=none;html=1;whiteSpace=wrap;verticalAlign=middle;overflow=hidden;" vertex="1" parent="1">
          <mxGeometry x="290" y="299" width="100" height="80" as="geometry" />
        </mxCell>
        <mxCell id="SpBt9WVTU8YwIuKVBQ5M-37" value="" style="shape=ellipse;labelPosition=right;align=left;strokeColor=none;fillColor=#666666;opacity=10;sketch=0;html=1;" vertex="1" parent="1">
          <mxGeometry x="385" y="324" width="30" height="20" as="geometry" />
        </mxCell>
        <mxCell id="SpBt9WVTU8YwIuKVBQ5M-38" value="" style="dashed=0;labelPosition=right;align=left;shape=mxgraph.gmdl.checkbox;strokeColor=#666666;fillColor=none;strokeWidth=2;sketch=0;html=1;" vertex="1" parent="SpBt9WVTU8YwIuKVBQ5M-37">
          <mxGeometry x="10" y="6.666666666666666" width="10" height="6.666666666666666" as="geometry" />
        </mxCell>
        <mxCell id="SpBt9WVTU8YwIuKVBQ5M-39" value="" style="shape=ellipse;labelPosition=right;align=left;strokeColor=none;fillColor=#666666;opacity=10;sketch=0;html=1;" vertex="1" parent="1">
          <mxGeometry x="385" y="338" width="30" height="20" as="geometry" />
        </mxCell>
        <mxCell id="SpBt9WVTU8YwIuKVBQ5M-40" value="" style="dashed=0;labelPosition=right;align=left;shape=mxgraph.gmdl.checkbox;strokeColor=#666666;fillColor=none;strokeWidth=2;sketch=0;html=1;" vertex="1" parent="SpBt9WVTU8YwIuKVBQ5M-39">
          <mxGeometry x="10" y="6.666666666666666" width="10" height="6.666666666666666" as="geometry" />
        </mxCell>
        <mxCell id="SpBt9WVTU8YwIuKVBQ5M-41" value="Student" style="labelPosition=center;verticalLabelPosition=middle;align=center;html=1;shape=mxgraph.basic.shaded_button;dx=10;fillColor=#E6E6E6;strokeColor=none;whiteSpace=wrap;" vertex="1" parent="1">
          <mxGeometry x="590" y="90" width="100" height="40" as="geometry" />
        </mxCell>
        <mxCell id="SpBt9WVTU8YwIuKVBQ5M-42" value="Bus Driver" style="labelPosition=center;verticalLabelPosition=middle;align=center;html=1;shape=mxgraph.basic.shaded_button;dx=10;fillColor=#E6E6E6;strokeColor=none;whiteSpace=wrap;" vertex="1" parent="1">
          <mxGeometry x="97.5" y="530" width="100" height="40" as="geometry" />
        </mxCell>
        <mxCell id="SpBt9WVTU8YwIuKVBQ5M-43" value="Location" style="ellipse;whiteSpace=wrap;html=1;aspect=fixed;" vertex="1" parent="1">
          <mxGeometry x="570" y="166" width="60" height="60" as="geometry" />
        </mxCell>
        <mxCell id="SpBt9WVTU8YwIuKVBQ5M-44" value="Join Bus" style="ellipse;whiteSpace=wrap;html=1;aspect=fixed;" vertex="1" parent="1">
          <mxGeometry x="650" y="250" width="60" height="60" as="geometry" />
        </mxCell>
        <mxCell id="SpBt9WVTU8YwIuKVBQ5M-45" value="Attending" style="ellipse;whiteSpace=wrap;html=1;aspect=fixed;" vertex="1" parent="1">
          <mxGeometry x="570" y="250" width="60" height="60" as="geometry" />
        </mxCell>
        <mxCell id="SpBt9WVTU8YwIuKVBQ5M-46" value="Schedule" style="ellipse;whiteSpace=wrap;html=1;aspect=fixed;" vertex="1" parent="1">
          <mxGeometry x="650" y="166" width="60" height="60" as="geometry" />
        </mxCell>
        <mxCell id="SpBt9WVTU8YwIuKVBQ5M-47" value="Add Bus" style="ellipse;whiteSpace=wrap;html=1;aspect=fixed;" vertex="1" parent="1">
          <mxGeometry x="90" y="610" width="60" height="60" as="geometry" />
        </mxCell>
        <mxCell id="SpBt9WVTU8YwIuKVBQ5M-48" value="Route" style="ellipse;whiteSpace=wrap;html=1;aspect=fixed;" vertex="1" parent="1">
          <mxGeometry x="170.5" y="610" width="60" height="60" as="geometry" />
        </mxCell>
        <mxCell id="SpBt9WVTU8YwIuKVBQ5M-50" value="Bus info" style="ellipse;whiteSpace=wrap;html=1;aspect=fixed;" vertex="1" parent="1">
          <mxGeometry x="90" y="690" width="60" height="60" as="geometry" />
        </mxCell>
        <mxCell id="SpBt9WVTU8YwIuKVBQ5M-52" value="Students Attending" style="ellipse;whiteSpace=wrap;html=1;aspect=fixed;" vertex="1" parent="1">
          <mxGeometry x="170" y="690" width="60" height="60" as="geometry" />
        </mxCell>
      </root>
    </mxGraphModel>
  </diagram>
</mxfile>
